<svg width="200" height="200" viewBox="0 0 200 200" fill="none" xmlns="http://www.w3.org/2000/svg">
  <rect width="200" height="200" rx="20" fill="#2563EB" />
  <path d="M100 50C77.9086 50 60 67.9086 60 90C60 112.091 77.9086 130 100 130C122.091 130 140 112.091 140 90C140 67.9086 122.091 50 100 50ZM100 120C83.4315 120 70 106.569 70 90C70 73.4315 83.4315 60 100 60C116.569 60 130 73.4315 130 90C130 106.569 116.569 120 100 120Z" fill="white"/>
  <path d="M100 70C88.9543 70 80 78.9543 80 90C80 101.046 88.9543 110 100 110C111.046 110 120 101.046 120 90C120 78.9543 111.046 70 100 70ZM100 100C94.4772 100 90 95.5228 90 90C90 84.4772 94.4772 80 100 80C105.523 80 110 84.4772 110 90C110 95.5228 105.523 100 100 100Z" fill="white"/>
  <path d="M150 140H50C44.4772 140 40 144.477 40 150C40 155.523 44.4772 160 50 160H150C155.523 160 160 155.523 160 150C160 144.477 155.523 140 150 140Z" fill="white"/>
</svg>