<svg width="400" height="300" viewBox="0 0 400 300" fill="none" xmlns="http://www.w3.org/2000/svg">
  <rect width="400" height="300" rx="10" fill="#EFF6FF" />
  <circle cx="200" cy="120" r="80" fill="#3B82F6" />
  <path d="M160 120C160 120 180 150 200 150C220 150 240 120 240 120" stroke="white" stroke-width="8" stroke-linecap="round" />
  <circle cx="170" cy="100" r="12" fill="white" />
  <circle cx="230" cy="100" r="12" fill="white" />
  <path d="M140 80C140 80 150 60 170 60C190 60 200 80 200 80" stroke="#1E40AF" stroke-width="6" stroke-linecap="round" />
  <path d="M200 80C200 80 210 60 230 60C250 60 260 80 260 80" stroke="#1E40AF" stroke-width="6" stroke-linecap="round" />
  <path d="M150 200L250 200" stroke="#1E40AF" stroke-width="6" stroke-linecap="round" />
  <path d="M170 220L230 220" stroke="#1E40AF" stroke-width="6" stroke-linecap="round" />
  <path d="M190 240L210 240" stroke="#1E40AF" stroke-width="6" stroke-linecap="round" />
</svg>